<mxfile host="app.diagrams.net" modified="2023-08-30T00:22:53.401Z" agent="Mozilla/5.0 (X11; Linux x86_64; rv:109.0) Gecko/20100101 Firefox/116.0" etag="kcl2_o3jEx3E221xaehz" version="21.5.2" type="device">
  <diagram id="YubDv3jn2inDMCFgffVC" name="Page-1">
    <mxGraphModel dx="2049" dy="1076" grid="1" gridSize="10" guides="1" tooltips="1" connect="1" arrows="1" fold="1" page="1" pageScale="3" pageWidth="850" pageHeight="1100" math="0" shadow="0">
      <root>
        <mxCell id="0" />
        <mxCell id="1" parent="0" />
        <mxCell id="2DbDJx7GJpLvoIrPaRd6-7" value="" style="rounded=0;whiteSpace=wrap;html=1;strokeWidth=3;fillColor=#b1ddf0;strokeColor=#10739e;" parent="1" vertex="1">
          <mxGeometry x="310" y="350" width="170" height="90" as="geometry" />
        </mxCell>
        <mxCell id="2DbDJx7GJpLvoIrPaRd6-8" value="I0" style="text;html=1;strokeColor=none;fillColor=none;align=center;verticalAlign=middle;whiteSpace=wrap;rounded=0;strokeWidth=3;" parent="1" vertex="1">
          <mxGeometry x="310" y="350" width="40" height="20" as="geometry" />
        </mxCell>
        <mxCell id="2DbDJx7GJpLvoIrPaRd6-9" value="I1" style="text;html=1;strokeColor=none;fillColor=none;align=center;verticalAlign=middle;whiteSpace=wrap;rounded=0;strokeWidth=3;" parent="1" vertex="1">
          <mxGeometry x="340" y="350" width="40" height="20" as="geometry" />
        </mxCell>
        <mxCell id="2DbDJx7GJpLvoIrPaRd6-10" value="I2" style="text;html=1;strokeColor=none;fillColor=none;align=center;verticalAlign=middle;whiteSpace=wrap;rounded=0;strokeWidth=3;" parent="1" vertex="1">
          <mxGeometry x="380" y="350" width="40" height="20" as="geometry" />
        </mxCell>
        <mxCell id="2DbDJx7GJpLvoIrPaRd6-11" value="I3" style="text;html=1;strokeColor=none;fillColor=none;align=center;verticalAlign=middle;whiteSpace=wrap;rounded=0;strokeWidth=3;" parent="1" vertex="1">
          <mxGeometry x="420" y="350" width="40" height="20" as="geometry" />
        </mxCell>
        <mxCell id="2DbDJx7GJpLvoIrPaRd6-12" value="sel" style="text;html=1;strokeColor=none;fillColor=none;align=center;verticalAlign=middle;whiteSpace=wrap;rounded=0;strokeWidth=3;" parent="1" vertex="1">
          <mxGeometry x="300" y="385" width="40" height="20" as="geometry" />
        </mxCell>
        <mxCell id="2DbDJx7GJpLvoIrPaRd6-13" value="out" style="text;html=1;strokeColor=none;fillColor=none;align=center;verticalAlign=middle;whiteSpace=wrap;rounded=0;strokeWidth=3;" parent="1" vertex="1">
          <mxGeometry x="420" y="420" width="40" height="20" as="geometry" />
        </mxCell>
        <mxCell id="2DbDJx7GJpLvoIrPaRd6-14" value="" style="rounded=0;whiteSpace=wrap;html=1;strokeWidth=3;fillColor=#d5e8d4;strokeColor=#82b366;" parent="1" vertex="1">
          <mxGeometry x="600" y="400" width="80" height="80" as="geometry" />
        </mxCell>
        <mxCell id="2DbDJx7GJpLvoIrPaRd6-15" value="&lt;font style=&quot;font-size: 20px&quot;&gt;&lt;b&gt;is sub code&lt;/b&gt;&lt;/font&gt;" style="text;html=1;strokeColor=none;fillColor=none;align=center;verticalAlign=middle;whiteSpace=wrap;rounded=0;strokeWidth=3;" parent="1" vertex="1">
          <mxGeometry x="610" y="425" width="60" height="30" as="geometry" />
        </mxCell>
        <mxCell id="2DbDJx7GJpLvoIrPaRd6-17" value="&lt;font style=&quot;font-size: 20px&quot;&gt;&lt;b&gt;mux4&lt;/b&gt;&lt;/font&gt;" style="text;html=1;strokeColor=none;fillColor=none;align=center;verticalAlign=middle;whiteSpace=wrap;rounded=0;strokeWidth=3;" parent="1" vertex="1">
          <mxGeometry x="370" y="385" width="40" height="20" as="geometry" />
        </mxCell>
        <mxCell id="2DbDJx7GJpLvoIrPaRd6-19" value="" style="rounded=0;whiteSpace=wrap;html=1;strokeWidth=3;fillColor=#b1ddf0;strokeColor=#10739e;" parent="1" vertex="1">
          <mxGeometry x="760" y="400" width="120" height="80" as="geometry" />
        </mxCell>
        <mxCell id="2DbDJx7GJpLvoIrPaRd6-20" value="I0" style="text;html=1;strokeColor=none;fillColor=none;align=center;verticalAlign=middle;whiteSpace=wrap;rounded=0;strokeWidth=3;" parent="1" vertex="1">
          <mxGeometry x="780" y="400" width="40" height="20" as="geometry" />
        </mxCell>
        <mxCell id="2DbDJx7GJpLvoIrPaRd6-21" value="I1" style="text;html=1;strokeColor=none;fillColor=none;align=center;verticalAlign=middle;whiteSpace=wrap;rounded=0;strokeWidth=3;" parent="1" vertex="1">
          <mxGeometry x="820" y="400" width="40" height="20" as="geometry" />
        </mxCell>
        <mxCell id="2DbDJx7GJpLvoIrPaRd6-22" value="sel" style="text;html=1;strokeColor=none;fillColor=none;align=center;verticalAlign=middle;whiteSpace=wrap;rounded=0;strokeWidth=3;" parent="1" vertex="1">
          <mxGeometry x="750" y="430" width="40" height="20" as="geometry" />
        </mxCell>
        <mxCell id="2DbDJx7GJpLvoIrPaRd6-23" value="out" style="text;html=1;strokeColor=none;fillColor=none;align=center;verticalAlign=middle;whiteSpace=wrap;rounded=0;strokeWidth=3;" parent="1" vertex="1">
          <mxGeometry x="820" y="460" width="40" height="20" as="geometry" />
        </mxCell>
        <mxCell id="2DbDJx7GJpLvoIrPaRd6-24" value="&lt;font style=&quot;font-size: 20px&quot;&gt;&lt;b&gt;mux2&lt;/b&gt;&lt;/font&gt;" style="text;html=1;strokeColor=none;fillColor=none;align=center;verticalAlign=middle;whiteSpace=wrap;rounded=0;strokeWidth=3;" parent="1" vertex="1">
          <mxGeometry x="800" y="430" width="40" height="20" as="geometry" />
        </mxCell>
        <mxCell id="2DbDJx7GJpLvoIrPaRd6-25" value="" style="rounded=0;whiteSpace=wrap;html=1;strokeWidth=3;fillColor=#fff2cc;strokeColor=#d6b656;" parent="1" vertex="1">
          <mxGeometry x="320" y="560" width="160" height="120" as="geometry" />
        </mxCell>
        <mxCell id="2DbDJx7GJpLvoIrPaRd6-26" value="&lt;font size=&quot;1&quot;&gt;&lt;b style=&quot;font-size: 20px&quot;&gt;Adder&lt;/b&gt;&lt;/font&gt;" style="text;html=1;strokeColor=none;fillColor=none;align=center;verticalAlign=middle;whiteSpace=wrap;rounded=0;strokeWidth=3;" parent="1" vertex="1">
          <mxGeometry x="375" y="610" width="40" height="20" as="geometry" />
        </mxCell>
        <mxCell id="2DbDJx7GJpLvoIrPaRd6-27" value="a" style="text;html=1;strokeColor=none;fillColor=none;align=center;verticalAlign=middle;whiteSpace=wrap;rounded=0;strokeWidth=3;" parent="1" vertex="1">
          <mxGeometry x="340" y="560" width="40" height="20" as="geometry" />
        </mxCell>
        <mxCell id="2DbDJx7GJpLvoIrPaRd6-28" value="b" style="text;html=1;strokeColor=none;fillColor=none;align=center;verticalAlign=middle;whiteSpace=wrap;rounded=0;strokeWidth=3;" parent="1" vertex="1">
          <mxGeometry x="420" y="560" width="40" height="20" as="geometry" />
        </mxCell>
        <mxCell id="2DbDJx7GJpLvoIrPaRd6-29" value="cOut" style="text;html=1;strokeColor=none;fillColor=none;align=center;verticalAlign=middle;whiteSpace=wrap;rounded=0;strokeWidth=3;" parent="1" vertex="1">
          <mxGeometry x="340" y="660" width="40" height="20" as="geometry" />
        </mxCell>
        <mxCell id="2DbDJx7GJpLvoIrPaRd6-30" value="result" style="text;html=1;strokeColor=none;fillColor=none;align=center;verticalAlign=middle;whiteSpace=wrap;rounded=0;strokeWidth=3;" parent="1" vertex="1">
          <mxGeometry x="420" y="660" width="40" height="20" as="geometry" />
        </mxCell>
        <mxCell id="2DbDJx7GJpLvoIrPaRd6-31" value="" style="rounded=0;whiteSpace=wrap;html=1;strokeWidth=3;fillColor=#fff2cc;strokeColor=#d6b656;" parent="1" vertex="1">
          <mxGeometry x="720" y="560" width="160" height="120" as="geometry" />
        </mxCell>
        <mxCell id="2DbDJx7GJpLvoIrPaRd6-32" value="&lt;font style=&quot;font-size: 20px&quot;&gt;&lt;b&gt;Negate&lt;/b&gt;&lt;/font&gt;" style="text;html=1;strokeColor=none;fillColor=none;align=center;verticalAlign=middle;whiteSpace=wrap;rounded=0;strokeWidth=3;" parent="1" vertex="1">
          <mxGeometry x="780" y="610" width="40" height="20" as="geometry" />
        </mxCell>
        <mxCell id="2DbDJx7GJpLvoIrPaRd6-34" value="a" style="text;html=1;strokeColor=none;fillColor=none;align=center;verticalAlign=middle;whiteSpace=wrap;rounded=0;strokeWidth=3;" parent="1" vertex="1">
          <mxGeometry x="780" y="560" width="40" height="20" as="geometry" />
        </mxCell>
        <mxCell id="2DbDJx7GJpLvoIrPaRd6-35" value="neg_a" style="text;html=1;strokeColor=none;fillColor=none;align=center;verticalAlign=middle;whiteSpace=wrap;rounded=0;strokeWidth=3;" parent="1" vertex="1">
          <mxGeometry x="780" y="660" width="40" height="20" as="geometry" />
        </mxCell>
        <mxCell id="2DbDJx7GJpLvoIrPaRd6-36" value="" style="rounded=0;whiteSpace=wrap;html=1;strokeWidth=3;fillColor=#fff2cc;strokeColor=#d6b656;" parent="1" vertex="1">
          <mxGeometry x="1000" y="560" width="160" height="120" as="geometry" />
        </mxCell>
        <mxCell id="2DbDJx7GJpLvoIrPaRd6-37" value="&lt;font size=&quot;1&quot;&gt;&lt;b style=&quot;font-size: 20px&quot;&gt;Not&lt;/b&gt;&lt;/font&gt;" style="text;html=1;strokeColor=none;fillColor=none;align=center;verticalAlign=middle;whiteSpace=wrap;rounded=0;strokeWidth=3;" parent="1" vertex="1">
          <mxGeometry x="1060" y="610" width="40" height="20" as="geometry" />
        </mxCell>
        <mxCell id="2DbDJx7GJpLvoIrPaRd6-38" value="a" style="text;html=1;strokeColor=none;fillColor=none;align=center;verticalAlign=middle;whiteSpace=wrap;rounded=0;strokeWidth=3;" parent="1" vertex="1">
          <mxGeometry x="1060" y="560" width="40" height="20" as="geometry" />
        </mxCell>
        <mxCell id="2DbDJx7GJpLvoIrPaRd6-40" value="not_a" style="text;html=1;strokeColor=none;fillColor=none;align=center;verticalAlign=middle;whiteSpace=wrap;rounded=0;strokeWidth=3;" parent="1" vertex="1">
          <mxGeometry x="1060" y="660" width="40" height="20" as="geometry" />
        </mxCell>
        <mxCell id="2DbDJx7GJpLvoIrPaRd6-41" value="" style="rounded=0;whiteSpace=wrap;html=1;strokeWidth=3;fillColor=#fff2cc;strokeColor=#d6b656;" parent="1" vertex="1">
          <mxGeometry x="1280" y="560" width="160" height="120" as="geometry" />
        </mxCell>
        <mxCell id="2DbDJx7GJpLvoIrPaRd6-42" value="&lt;b style=&quot;font-size: 20px;&quot;&gt;AND&lt;/b&gt;" style="text;html=1;strokeColor=none;fillColor=none;align=center;verticalAlign=middle;whiteSpace=wrap;rounded=0;strokeWidth=3;fontSize=20;" parent="1" vertex="1">
          <mxGeometry x="1340" y="610" width="40" height="20" as="geometry" />
        </mxCell>
        <mxCell id="2DbDJx7GJpLvoIrPaRd6-43" value="a" style="text;html=1;strokeColor=none;fillColor=none;align=center;verticalAlign=middle;whiteSpace=wrap;rounded=0;strokeWidth=3;" parent="1" vertex="1">
          <mxGeometry x="1300" y="560" width="40" height="20" as="geometry" />
        </mxCell>
        <mxCell id="2DbDJx7GJpLvoIrPaRd6-44" value="b" style="text;html=1;strokeColor=none;fillColor=none;align=center;verticalAlign=middle;whiteSpace=wrap;rounded=0;strokeWidth=3;" parent="1" vertex="1">
          <mxGeometry x="1380" y="560" width="40" height="20" as="geometry" />
        </mxCell>
        <mxCell id="2DbDJx7GJpLvoIrPaRd6-46" value="a_and_b" style="text;html=1;strokeColor=none;fillColor=none;align=center;verticalAlign=middle;whiteSpace=wrap;rounded=0;strokeWidth=3;" parent="1" vertex="1">
          <mxGeometry x="1340" y="660" width="40" height="20" as="geometry" />
        </mxCell>
        <mxCell id="2DbDJx7GJpLvoIrPaRd6-47" value="" style="rounded=0;whiteSpace=wrap;html=1;strokeWidth=3;fillColor=#fff2cc;strokeColor=#d6b656;" parent="1" vertex="1">
          <mxGeometry x="1560" y="560" width="160" height="120" as="geometry" />
        </mxCell>
        <mxCell id="2DbDJx7GJpLvoIrPaRd6-48" value="&lt;b style=&quot;font-size: 20px;&quot;&gt;or&lt;/b&gt;" style="text;html=1;strokeColor=none;fillColor=none;align=center;verticalAlign=middle;whiteSpace=wrap;rounded=0;strokeWidth=3;fontSize=20;" parent="1" vertex="1">
          <mxGeometry x="1620" y="610" width="40" height="20" as="geometry" />
        </mxCell>
        <mxCell id="2DbDJx7GJpLvoIrPaRd6-49" value="a" style="text;html=1;strokeColor=none;fillColor=none;align=center;verticalAlign=middle;whiteSpace=wrap;rounded=0;strokeWidth=3;" parent="1" vertex="1">
          <mxGeometry x="1580" y="560" width="40" height="20" as="geometry" />
        </mxCell>
        <mxCell id="2DbDJx7GJpLvoIrPaRd6-50" value="b" style="text;html=1;strokeColor=none;fillColor=none;align=center;verticalAlign=middle;whiteSpace=wrap;rounded=0;strokeWidth=3;" parent="1" vertex="1">
          <mxGeometry x="1660" y="560" width="40" height="20" as="geometry" />
        </mxCell>
        <mxCell id="2DbDJx7GJpLvoIrPaRd6-51" value="a_or_b" style="text;html=1;strokeColor=none;fillColor=none;align=center;verticalAlign=middle;whiteSpace=wrap;rounded=0;strokeWidth=3;" parent="1" vertex="1">
          <mxGeometry x="1620" y="660" width="40" height="20" as="geometry" />
        </mxCell>
        <mxCell id="2DbDJx7GJpLvoIrPaRd6-52" value="" style="rounded=0;whiteSpace=wrap;html=1;strokeWidth=3;fillColor=#b1ddf0;strokeColor=#10739e;" parent="1" vertex="1">
          <mxGeometry x="840" y="840" width="240" height="120" as="geometry" />
        </mxCell>
        <mxCell id="2DbDJx7GJpLvoIrPaRd6-53" value="I0" style="text;html=1;strokeColor=none;fillColor=none;align=center;verticalAlign=middle;whiteSpace=wrap;rounded=0;strokeWidth=3;" parent="1" vertex="1">
          <mxGeometry x="860" y="840" width="40" height="20" as="geometry" />
        </mxCell>
        <mxCell id="2DbDJx7GJpLvoIrPaRd6-55" value="I1" style="text;html=1;strokeColor=none;fillColor=none;align=center;verticalAlign=middle;whiteSpace=wrap;rounded=0;strokeWidth=3;" parent="1" vertex="1">
          <mxGeometry x="900" y="840" width="40" height="20" as="geometry" />
        </mxCell>
        <mxCell id="2DbDJx7GJpLvoIrPaRd6-56" value="I2" style="text;html=1;strokeColor=none;fillColor=none;align=center;verticalAlign=middle;whiteSpace=wrap;rounded=0;strokeWidth=3;" parent="1" vertex="1">
          <mxGeometry x="940" y="840" width="40" height="20" as="geometry" />
        </mxCell>
        <mxCell id="2DbDJx7GJpLvoIrPaRd6-58" value="I3" style="text;html=1;strokeColor=none;fillColor=none;align=center;verticalAlign=middle;whiteSpace=wrap;rounded=0;strokeWidth=3;" parent="1" vertex="1">
          <mxGeometry x="980" y="840" width="40" height="20" as="geometry" />
        </mxCell>
        <mxCell id="2DbDJx7GJpLvoIrPaRd6-59" value="I4-7" style="text;html=1;strokeColor=none;fillColor=none;align=center;verticalAlign=middle;whiteSpace=wrap;rounded=0;strokeWidth=3;" parent="1" vertex="1">
          <mxGeometry x="1020" y="840" width="40" height="20" as="geometry" />
        </mxCell>
        <mxCell id="2DbDJx7GJpLvoIrPaRd6-60" value="&lt;b style=&quot;font-size: 20px;&quot;&gt;mux5&lt;/b&gt;" style="text;html=1;strokeColor=none;fillColor=none;align=center;verticalAlign=middle;whiteSpace=wrap;rounded=0;strokeWidth=3;fontSize=20;" parent="1" vertex="1">
          <mxGeometry x="940" y="890" width="40" height="20" as="geometry" />
        </mxCell>
        <mxCell id="2DbDJx7GJpLvoIrPaRd6-62" value="out" style="text;html=1;strokeColor=none;fillColor=none;align=center;verticalAlign=middle;whiteSpace=wrap;rounded=0;strokeWidth=3;" parent="1" vertex="1">
          <mxGeometry x="1020" y="940" width="40" height="20" as="geometry" />
        </mxCell>
        <mxCell id="2DbDJx7GJpLvoIrPaRd6-63" value="sel" style="text;html=1;strokeColor=none;fillColor=none;align=center;verticalAlign=middle;whiteSpace=wrap;rounded=0;strokeWidth=3;" parent="1" vertex="1">
          <mxGeometry x="1050" y="910" width="40" height="20" as="geometry" />
        </mxCell>
        <mxCell id="2DbDJx7GJpLvoIrPaRd6-65" value="" style="rounded=0;whiteSpace=wrap;html=1;strokeWidth=3;fillColor=#d5e8d4;strokeColor=#82b366;" parent="1" vertex="1">
          <mxGeometry x="520" y="840" width="80" height="80" as="geometry" />
        </mxCell>
        <mxCell id="2DbDJx7GJpLvoIrPaRd6-66" value="&lt;font style=&quot;font-size: 20px&quot;&gt;&lt;b&gt;is neg code&lt;/b&gt;&lt;/font&gt;" style="text;html=1;strokeColor=none;fillColor=none;align=center;verticalAlign=middle;whiteSpace=wrap;rounded=0;strokeWidth=3;" parent="1" vertex="1">
          <mxGeometry x="532.5" y="850" width="55" height="60" as="geometry" />
        </mxCell>
        <mxCell id="2DbDJx7GJpLvoIrPaRd6-67" value="" style="rounded=0;whiteSpace=wrap;html=1;strokeWidth=3;fillColor=#d5e8d4;strokeColor=#82b366;" parent="1" vertex="1">
          <mxGeometry x="380" y="840" width="80" height="80" as="geometry" />
        </mxCell>
        <mxCell id="2DbDJx7GJpLvoIrPaRd6-68" value="&lt;font style=&quot;font-size: 20px&quot;&gt;&lt;b&gt;is add code&lt;/b&gt;&lt;/font&gt;" style="text;html=1;strokeColor=none;fillColor=none;align=center;verticalAlign=middle;whiteSpace=wrap;rounded=0;strokeWidth=3;" parent="1" vertex="1">
          <mxGeometry x="390" y="860" width="60" height="40" as="geometry" />
        </mxCell>
        <mxCell id="2DbDJx7GJpLvoIrPaRd6-69" value="" style="shape=or;whiteSpace=wrap;html=1;direction=south;strokeWidth=3;" parent="1" vertex="1">
          <mxGeometry x="340" y="960" width="80" height="60" as="geometry" />
        </mxCell>
        <mxCell id="2DbDJx7GJpLvoIrPaRd6-70" value="" style="shape=or;whiteSpace=wrap;html=1;direction=south;strokeWidth=3;" parent="1" vertex="1">
          <mxGeometry x="580" y="960" width="80" height="60" as="geometry" />
        </mxCell>
        <mxCell id="2DbDJx7GJpLvoIrPaRd6-71" value="" style="shape=xor;whiteSpace=wrap;html=1;direction=south;strokeWidth=3;" parent="1" vertex="1">
          <mxGeometry x="460" y="1120" width="80" height="60" as="geometry" />
        </mxCell>
        <mxCell id="2DbDJx7GJpLvoIrPaRd6-72" value="" style="rounded=0;whiteSpace=wrap;html=1;strokeWidth=3;fillColor=#d5e8d4;strokeColor=#82b366;" parent="1" vertex="1">
          <mxGeometry x="710" y="1110" width="100" height="50" as="geometry" />
        </mxCell>
        <mxCell id="2DbDJx7GJpLvoIrPaRd6-73" value="&lt;b&gt;Is &lt;span style=&quot;font-size: 20px;&quot;&gt;Negative&lt;/span&gt;&lt;/b&gt;" style="text;html=1;strokeColor=none;fillColor=none;align=center;verticalAlign=middle;whiteSpace=wrap;rounded=0;strokeWidth=3;fontSize=20;" parent="1" vertex="1">
          <mxGeometry x="740" y="1130" width="40" height="20" as="geometry" />
        </mxCell>
        <mxCell id="2DbDJx7GJpLvoIrPaRd6-74" value="" style="rounded=0;whiteSpace=wrap;html=1;strokeWidth=3;fillColor=#d5e8d4;strokeColor=#82b366;" parent="1" vertex="1">
          <mxGeometry x="840" y="1110" width="80" height="50" as="geometry" />
        </mxCell>
        <mxCell id="2DbDJx7GJpLvoIrPaRd6-75" value="&lt;b&gt;Is &lt;span style=&quot;font-size: 20px;&quot;&gt;Zero&lt;/span&gt;&lt;/b&gt;" style="text;html=1;strokeColor=none;fillColor=none;align=center;verticalAlign=middle;whiteSpace=wrap;rounded=0;strokeWidth=3;fontSize=20;" parent="1" vertex="1">
          <mxGeometry x="860" y="1130" width="40" height="20" as="geometry" />
        </mxCell>
        <mxCell id="2DbDJx7GJpLvoIrPaRd6-77" value="&lt;div&gt;A&lt;/div&gt;" style="text;html=1;strokeColor=none;fillColor=none;align=center;verticalAlign=middle;whiteSpace=wrap;rounded=0;strokeWidth=3;fontSize=20;" parent="1" vertex="1">
          <mxGeometry x="880" y="215" width="40" height="20" as="geometry" />
        </mxCell>
        <mxCell id="2DbDJx7GJpLvoIrPaRd6-81" value="B" style="text;html=1;strokeColor=none;fillColor=none;align=center;verticalAlign=middle;whiteSpace=wrap;rounded=0;strokeWidth=3;fontSize=20;" parent="1" vertex="1">
          <mxGeometry x="1040" y="215" width="40" height="20" as="geometry" />
        </mxCell>
        <mxCell id="2DbDJx7GJpLvoIrPaRd6-83" value="opc" style="text;html=1;strokeColor=none;fillColor=none;align=center;verticalAlign=middle;whiteSpace=wrap;rounded=0;strokeWidth=3;fontSize=20;" parent="1" vertex="1">
          <mxGeometry x="1200" y="210" width="40" height="30" as="geometry" />
        </mxCell>
        <mxCell id="2DbDJx7GJpLvoIrPaRd6-84" value="-1(8b)" style="text;html=1;strokeColor=none;fillColor=none;align=center;verticalAlign=middle;whiteSpace=wrap;rounded=0;strokeWidth=3;fontSize=20;" parent="1" vertex="1">
          <mxGeometry x="440" y="180" width="40" height="20" as="geometry" />
        </mxCell>
        <mxCell id="2DbDJx7GJpLvoIrPaRd6-86" value="1(8b)" style="text;html=1;strokeColor=none;fillColor=none;align=center;verticalAlign=middle;whiteSpace=wrap;rounded=0;strokeWidth=3;fontSize=20;" parent="1" vertex="1">
          <mxGeometry x="360" y="180" width="40" height="20" as="geometry" />
        </mxCell>
        <mxCell id="2DbDJx7GJpLvoIrPaRd6-88" value="" style="endArrow=none;html=1;exitX=0.5;exitY=0;exitDx=0;exitDy=0;entryX=1;entryY=1;entryDx=0;entryDy=0;strokeWidth=3;" parent="1" source="2DbDJx7GJpLvoIrPaRd6-10" target="2DbDJx7GJpLvoIrPaRd6-86" edge="1">
          <mxGeometry width="50" height="50" relative="1" as="geometry">
            <mxPoint x="570" y="410" as="sourcePoint" />
            <mxPoint x="620" y="360" as="targetPoint" />
          </mxGeometry>
        </mxCell>
        <mxCell id="2DbDJx7GJpLvoIrPaRd6-89" value="" style="endArrow=none;html=1;exitX=0.5;exitY=0;exitDx=0;exitDy=0;entryX=0;entryY=1;entryDx=0;entryDy=0;strokeWidth=3;" parent="1" source="2DbDJx7GJpLvoIrPaRd6-11" target="2DbDJx7GJpLvoIrPaRd6-84" edge="1">
          <mxGeometry width="50" height="50" relative="1" as="geometry">
            <mxPoint x="570" y="410" as="sourcePoint" />
            <mxPoint x="620" y="360" as="targetPoint" />
          </mxGeometry>
        </mxCell>
        <mxCell id="2DbDJx7GJpLvoIrPaRd6-90" value="" style="endArrow=none;html=1;exitX=0.5;exitY=1;exitDx=0;exitDy=0;rounded=0;entryX=0;entryY=0.5;entryDx=0;entryDy=0;strokeWidth=3;" parent="1" target="2DbDJx7GJpLvoIrPaRd6-7" edge="1">
          <mxGeometry width="50" height="50" relative="1" as="geometry">
            <mxPoint x="1220" y="240" as="sourcePoint" />
            <mxPoint x="290" y="400" as="targetPoint" />
            <Array as="points">
              <mxPoint x="1220" y="270" />
              <mxPoint x="270" y="270" />
              <mxPoint x="270" y="395" />
            </Array>
          </mxGeometry>
        </mxCell>
        <mxCell id="2DbDJx7GJpLvoIrPaRd6-91" value="opc(0,1)" style="text;html=1;strokeColor=none;fillColor=none;align=center;verticalAlign=middle;whiteSpace=wrap;rounded=0;strokeWidth=3;" parent="1" vertex="1">
          <mxGeometry x="230" y="405" width="100" height="20" as="geometry" />
        </mxCell>
        <mxCell id="2DbDJx7GJpLvoIrPaRd6-92" value="" style="endArrow=none;html=1;entryX=0.5;entryY=0;entryDx=0;entryDy=0;sourcePerimeterSpacing=0;startArrow=oval;startFill=1;strokeWidth=3;" parent="1" target="2DbDJx7GJpLvoIrPaRd6-14" edge="1">
          <mxGeometry width="50" height="50" relative="1" as="geometry">
            <mxPoint x="640" y="270" as="sourcePoint" />
            <mxPoint x="850" y="620" as="targetPoint" />
          </mxGeometry>
        </mxCell>
        <mxCell id="2DbDJx7GJpLvoIrPaRd6-93" value="" style="endArrow=none;html=1;startArrow=oval;startFill=1;entryX=0.5;entryY=0;entryDx=0;entryDy=0;strokeWidth=3;" parent="1" target="2DbDJx7GJpLvoIrPaRd6-65" edge="1">
          <mxGeometry width="50" height="50" relative="1" as="geometry">
            <mxPoint x="560" y="270" as="sourcePoint" />
            <mxPoint x="560" y="270" as="targetPoint" />
          </mxGeometry>
        </mxCell>
        <mxCell id="2DbDJx7GJpLvoIrPaRd6-94" value="" style="endArrow=none;html=1;entryX=0.5;entryY=0;entryDx=0;entryDy=0;startArrow=oval;startFill=1;rounded=0;strokeWidth=3;" parent="1" target="2DbDJx7GJpLvoIrPaRd6-67" edge="1">
          <mxGeometry width="50" height="50" relative="1" as="geometry">
            <mxPoint x="560" y="760" as="sourcePoint" />
            <mxPoint x="850" y="520" as="targetPoint" />
            <Array as="points">
              <mxPoint x="420" y="760" />
            </Array>
          </mxGeometry>
        </mxCell>
        <mxCell id="2DbDJx7GJpLvoIrPaRd6-96" value="" style="endArrow=oval;html=1;rounded=0;startArrow=none;startFill=0;endFill=1;strokeWidth=3;" parent="1" edge="1">
          <mxGeometry width="50" height="50" relative="1" as="geometry">
            <mxPoint x="1480" y="920" as="sourcePoint" />
            <mxPoint x="1220" y="270" as="targetPoint" />
            <Array as="points">
              <mxPoint x="1800" y="920" />
              <mxPoint x="1800" y="270" />
            </Array>
          </mxGeometry>
        </mxCell>
        <mxCell id="2DbDJx7GJpLvoIrPaRd6-97" value="" style="endArrow=none;html=1;entryX=0.75;entryY=0.5;entryDx=0;entryDy=0;entryPerimeter=0;strokeWidth=3;" parent="1" target="2DbDJx7GJpLvoIrPaRd6-63" edge="1">
          <mxGeometry width="50" height="50" relative="1" as="geometry">
            <mxPoint x="1160" y="920" as="sourcePoint" />
            <mxPoint x="1210" y="740" as="targetPoint" />
          </mxGeometry>
        </mxCell>
        <mxCell id="2DbDJx7GJpLvoIrPaRd6-98" value="" style="endArrow=none;html=1;rounded=0;strokeWidth=3;" parent="1" edge="1">
          <mxGeometry width="50" height="50" relative="1" as="geometry">
            <mxPoint x="1160" y="920" as="sourcePoint" />
            <mxPoint x="1480" y="920" as="targetPoint" />
            <Array as="points">
              <mxPoint x="1200" y="880" />
              <mxPoint x="1440" y="880" />
            </Array>
          </mxGeometry>
        </mxCell>
        <mxCell id="2DbDJx7GJpLvoIrPaRd6-99" value="" style="endArrow=none;html=1;rounded=0;strokeWidth=3;" parent="1" edge="1">
          <mxGeometry width="50" height="50" relative="1" as="geometry">
            <mxPoint x="1320" y="960" as="sourcePoint" />
            <mxPoint x="1480" y="920" as="targetPoint" />
            <Array as="points">
              <mxPoint x="1440" y="960" />
            </Array>
          </mxGeometry>
        </mxCell>
        <mxCell id="2DbDJx7GJpLvoIrPaRd6-100" value="" style="endArrow=none;html=1;strokeColor=#000000;strokeWidth=3;" parent="1" edge="1">
          <mxGeometry width="50" height="50" relative="1" as="geometry">
            <mxPoint x="1160" y="920" as="sourcePoint" />
            <mxPoint x="1480" y="920" as="targetPoint" />
          </mxGeometry>
        </mxCell>
        <mxCell id="2DbDJx7GJpLvoIrPaRd6-101" value="" style="triangle;whiteSpace=wrap;html=1;direction=west;strokeWidth=3;" parent="1" vertex="1">
          <mxGeometry x="1280" y="940" width="40" height="40" as="geometry" />
        </mxCell>
        <mxCell id="2DbDJx7GJpLvoIrPaRd6-103" value="" style="ellipse;whiteSpace=wrap;html=1;aspect=fixed;strokeWidth=3;" parent="1" vertex="1">
          <mxGeometry x="1270" y="955" width="10" height="10" as="geometry" />
        </mxCell>
        <mxCell id="2DbDJx7GJpLvoIrPaRd6-104" value="" style="endArrow=none;html=1;strokeColor=#000000;entryX=0;entryY=0.5;entryDx=0;entryDy=0;rounded=0;strokeWidth=3;" parent="1" target="2DbDJx7GJpLvoIrPaRd6-103" edge="1">
          <mxGeometry width="50" height="50" relative="1" as="geometry">
            <mxPoint x="1160" y="920" as="sourcePoint" />
            <mxPoint x="1200" y="740" as="targetPoint" />
            <Array as="points">
              <mxPoint x="1200" y="960" />
            </Array>
          </mxGeometry>
        </mxCell>
        <mxCell id="2DbDJx7GJpLvoIrPaRd6-105" value="opc(0)" style="text;html=1;strokeColor=none;fillColor=none;align=center;verticalAlign=middle;whiteSpace=wrap;rounded=0;strokeWidth=3;" parent="1" vertex="1">
          <mxGeometry x="1410" y="860" width="40" height="20" as="geometry" />
        </mxCell>
        <mxCell id="2DbDJx7GJpLvoIrPaRd6-106" value="opc(1)" style="text;html=1;strokeColor=none;fillColor=none;align=center;verticalAlign=middle;whiteSpace=wrap;rounded=0;strokeWidth=3;" parent="1" vertex="1">
          <mxGeometry x="1410" y="900" width="40" height="20" as="geometry" />
        </mxCell>
        <mxCell id="2DbDJx7GJpLvoIrPaRd6-107" value="opc(2)" style="text;html=1;strokeColor=none;fillColor=none;align=center;verticalAlign=middle;whiteSpace=wrap;rounded=0;strokeWidth=3;" parent="1" vertex="1">
          <mxGeometry x="1410" y="940" width="40" height="20" as="geometry" />
        </mxCell>
        <mxCell id="2DbDJx7GJpLvoIrPaRd6-110" value="" style="endArrow=none;html=1;strokeColor=#000000;exitX=0.5;exitY=0;exitDx=0;exitDy=0;entryX=0.5;entryY=1;entryDx=0;entryDy=0;rounded=0;strokeWidth=3;" parent="1" source="2DbDJx7GJpLvoIrPaRd6-72" target="2DbDJx7GJpLvoIrPaRd6-62" edge="1">
          <mxGeometry width="50" height="50" relative="1" as="geometry">
            <mxPoint x="610" y="970" as="sourcePoint" />
            <mxPoint x="660" y="920" as="targetPoint" />
            <Array as="points">
              <mxPoint x="760" y="1030" />
              <mxPoint x="1040" y="1030" />
            </Array>
          </mxGeometry>
        </mxCell>
        <mxCell id="2DbDJx7GJpLvoIrPaRd6-111" value="" style="endArrow=oval;html=1;exitX=0.5;exitY=0;exitDx=0;exitDy=0;startArrow=none;startFill=0;endFill=1;strokeWidth=3;" parent="1" source="2DbDJx7GJpLvoIrPaRd6-74" edge="1">
          <mxGeometry width="50" height="50" relative="1" as="geometry">
            <mxPoint x="610" y="970" as="sourcePoint" />
            <mxPoint x="880" y="1030" as="targetPoint" />
          </mxGeometry>
        </mxCell>
        <mxCell id="2DbDJx7GJpLvoIrPaRd6-112" value="" style="endArrow=none;html=1;strokeColor=#000000;exitX=1;exitY=0.5;exitDx=0;exitDy=0;exitPerimeter=0;entryX=0.175;entryY=0.25;entryDx=0;entryDy=0;entryPerimeter=0;rounded=0;strokeWidth=3;" parent="1" source="2DbDJx7GJpLvoIrPaRd6-70" target="2DbDJx7GJpLvoIrPaRd6-71" edge="1">
          <mxGeometry width="50" height="50" relative="1" as="geometry">
            <mxPoint x="610" y="1010" as="sourcePoint" />
            <mxPoint x="660" y="960" as="targetPoint" />
            <Array as="points">
              <mxPoint x="620" y="1070" />
              <mxPoint x="520" y="1070" />
            </Array>
          </mxGeometry>
        </mxCell>
        <mxCell id="2DbDJx7GJpLvoIrPaRd6-113" value="" style="endArrow=none;html=1;strokeColor=#000000;entryX=1;entryY=0.5;entryDx=0;entryDy=0;entryPerimeter=0;exitX=0.175;exitY=0.75;exitDx=0;exitDy=0;exitPerimeter=0;rounded=0;strokeWidth=3;" parent="1" source="2DbDJx7GJpLvoIrPaRd6-71" target="2DbDJx7GJpLvoIrPaRd6-69" edge="1">
          <mxGeometry width="50" height="50" relative="1" as="geometry">
            <mxPoint x="610" y="1010" as="sourcePoint" />
            <mxPoint x="660" y="960" as="targetPoint" />
            <Array as="points">
              <mxPoint x="480" y="1070" />
              <mxPoint x="380" y="1070" />
            </Array>
          </mxGeometry>
        </mxCell>
        <mxCell id="2DbDJx7GJpLvoIrPaRd6-119" value="" style="endArrow=classic;html=1;strokeColor=#000000;exitX=1;exitY=0.5;exitDx=0;exitDy=0;exitPerimeter=0;entryX=0.5;entryY=0;entryDx=0;entryDy=0;strokeWidth=3;endFill=1;" parent="1" source="2DbDJx7GJpLvoIrPaRd6-71" edge="1">
          <mxGeometry width="50" height="50" relative="1" as="geometry">
            <mxPoint x="670" y="1190" as="sourcePoint" />
            <mxPoint x="500" y="1240" as="targetPoint" />
          </mxGeometry>
        </mxCell>
        <mxCell id="2DbDJx7GJpLvoIrPaRd6-120" value="" style="endArrow=none;html=1;strokeColor=#000000;entryX=0.5;entryY=1;entryDx=0;entryDy=0;exitX=0.5;exitY=0;exitDx=0;exitDy=0;strokeWidth=3;startArrow=classic;startFill=1;" parent="1" target="2DbDJx7GJpLvoIrPaRd6-72" edge="1">
          <mxGeometry width="50" height="50" relative="1" as="geometry">
            <mxPoint x="760" y="1240" as="sourcePoint" />
            <mxPoint x="720" y="1140" as="targetPoint" />
          </mxGeometry>
        </mxCell>
        <mxCell id="2DbDJx7GJpLvoIrPaRd6-121" value="" style="endArrow=classic;html=1;strokeColor=#000000;exitX=0.5;exitY=1;exitDx=0;exitDy=0;entryX=0.5;entryY=0;entryDx=0;entryDy=0;strokeWidth=3;endFill=1;" parent="1" source="2DbDJx7GJpLvoIrPaRd6-74" edge="1">
          <mxGeometry width="50" height="50" relative="1" as="geometry">
            <mxPoint x="670" y="1190" as="sourcePoint" />
            <mxPoint x="880" y="1240" as="targetPoint" />
          </mxGeometry>
        </mxCell>
        <mxCell id="2DbDJx7GJpLvoIrPaRd6-122" value="" style="endArrow=classic;html=1;strokeColor=#000000;entryX=0.5;entryY=0;entryDx=0;entryDy=0;startArrow=oval;startFill=1;strokeWidth=3;endFill=1;" parent="1" edge="1">
          <mxGeometry width="50" height="50" relative="1" as="geometry">
            <mxPoint x="1040" y="1030" as="sourcePoint" />
            <mxPoint x="1040" y="1240" as="targetPoint" />
          </mxGeometry>
        </mxCell>
        <mxCell id="2DbDJx7GJpLvoIrPaRd6-123" value="" style="endArrow=none;html=1;strokeColor=#000000;exitX=0.5;exitY=1;exitDx=0;exitDy=0;entryX=0;entryY=0.75;entryDx=0;entryDy=0;entryPerimeter=0;strokeWidth=3;" parent="1" source="2DbDJx7GJpLvoIrPaRd6-29" target="2DbDJx7GJpLvoIrPaRd6-69" edge="1">
          <mxGeometry width="50" height="50" relative="1" as="geometry">
            <mxPoint x="670" y="710" as="sourcePoint" />
            <mxPoint x="720" y="660" as="targetPoint" />
          </mxGeometry>
        </mxCell>
        <mxCell id="2DbDJx7GJpLvoIrPaRd6-124" value="" style="endArrow=none;html=1;strokeColor=#000000;exitX=0.5;exitY=1;exitDx=0;exitDy=0;entryX=0;entryY=0.25;entryDx=0;entryDy=0;entryPerimeter=0;rounded=0;strokeWidth=3;" parent="1" source="2DbDJx7GJpLvoIrPaRd6-67" target="2DbDJx7GJpLvoIrPaRd6-69" edge="1">
          <mxGeometry width="50" height="50" relative="1" as="geometry">
            <mxPoint x="670" y="800" as="sourcePoint" />
            <mxPoint x="720" y="750" as="targetPoint" />
            <Array as="points">
              <mxPoint x="420" y="940" />
              <mxPoint x="400" y="940" />
            </Array>
          </mxGeometry>
        </mxCell>
        <mxCell id="2DbDJx7GJpLvoIrPaRd6-126" value="" style="endArrow=none;html=1;strokeColor=#000000;exitX=0.5;exitY=1;exitDx=0;exitDy=0;entryX=0;entryY=0.75;entryDx=0;entryDy=0;entryPerimeter=0;rounded=0;strokeWidth=3;" parent="1" source="2DbDJx7GJpLvoIrPaRd6-65" target="2DbDJx7GJpLvoIrPaRd6-70" edge="1">
          <mxGeometry width="50" height="50" relative="1" as="geometry">
            <mxPoint x="670" y="800" as="sourcePoint" />
            <mxPoint x="720" y="750" as="targetPoint" />
            <Array as="points">
              <mxPoint x="560" y="940" />
              <mxPoint x="600" y="940" />
            </Array>
          </mxGeometry>
        </mxCell>
        <mxCell id="2DbDJx7GJpLvoIrPaRd6-128" value="overF" style="text;html=1;strokeColor=none;fillColor=none;align=center;verticalAlign=middle;whiteSpace=wrap;rounded=0;strokeWidth=3;" parent="1" vertex="1">
          <mxGeometry x="840" y="660" width="40" height="20" as="geometry" />
        </mxCell>
        <mxCell id="2DbDJx7GJpLvoIrPaRd6-129" value="" style="endArrow=none;html=1;strokeColor=#000000;exitX=0;exitY=0.25;exitDx=0;exitDy=0;exitPerimeter=0;entryX=0.5;entryY=1;entryDx=0;entryDy=0;rounded=0;strokeWidth=3;" parent="1" source="2DbDJx7GJpLvoIrPaRd6-70" target="2DbDJx7GJpLvoIrPaRd6-128" edge="1">
          <mxGeometry width="50" height="50" relative="1" as="geometry">
            <mxPoint x="580" y="790" as="sourcePoint" />
            <mxPoint x="630" y="740" as="targetPoint" />
            <Array as="points">
              <mxPoint x="640" y="740" />
              <mxPoint x="860" y="740" />
            </Array>
          </mxGeometry>
        </mxCell>
        <mxCell id="2DbDJx7GJpLvoIrPaRd6-130" value="overf" style="text;html=1;strokeColor=none;fillColor=none;align=center;verticalAlign=middle;whiteSpace=wrap;rounded=0;strokeWidth=3;fontSize=20;" parent="1" vertex="1">
          <mxGeometry x="480" y="1240" width="40" height="20" as="geometry" />
        </mxCell>
        <mxCell id="2DbDJx7GJpLvoIrPaRd6-131" value="neg" style="text;html=1;strokeColor=none;fillColor=none;align=center;verticalAlign=middle;whiteSpace=wrap;rounded=0;strokeWidth=3;fontSize=20;" parent="1" vertex="1">
          <mxGeometry x="740" y="1240" width="40" height="20" as="geometry" />
        </mxCell>
        <mxCell id="2DbDJx7GJpLvoIrPaRd6-132" value="zero" style="text;html=1;strokeColor=none;fillColor=none;align=center;verticalAlign=middle;whiteSpace=wrap;rounded=0;strokeWidth=3;fontSize=20;" parent="1" vertex="1">
          <mxGeometry x="860" y="1240" width="40" height="20" as="geometry" />
        </mxCell>
        <mxCell id="2DbDJx7GJpLvoIrPaRd6-133" value="result" style="text;html=1;strokeColor=none;fillColor=none;align=center;verticalAlign=middle;whiteSpace=wrap;rounded=0;strokeWidth=3;fontSize=20;" parent="1" vertex="1">
          <mxGeometry x="1020" y="1240" width="40" height="20" as="geometry" />
        </mxCell>
        <mxCell id="2DbDJx7GJpLvoIrPaRd6-136" value="" style="endArrow=none;html=1;strokeColor=#000000;exitX=0.5;exitY=1;exitDx=0;exitDy=0;entryX=0.5;entryY=0;entryDx=0;entryDy=0;rounded=0;strokeWidth=3;" parent="1" source="2DbDJx7GJpLvoIrPaRd6-35" target="2DbDJx7GJpLvoIrPaRd6-53" edge="1">
          <mxGeometry width="50" height="50" relative="1" as="geometry">
            <mxPoint x="900" y="860" as="sourcePoint" />
            <mxPoint x="950" y="810" as="targetPoint" />
            <Array as="points">
              <mxPoint x="800" y="780" />
              <mxPoint x="880" y="780" />
            </Array>
          </mxGeometry>
        </mxCell>
        <mxCell id="2DbDJx7GJpLvoIrPaRd6-137" value="" style="endArrow=none;html=1;strokeColor=#000000;rounded=0;entryX=0.5;entryY=1;entryDx=0;entryDy=0;exitX=0.5;exitY=0;exitDx=0;exitDy=0;strokeWidth=3;" parent="1" source="2DbDJx7GJpLvoIrPaRd6-55" target="2DbDJx7GJpLvoIrPaRd6-40" edge="1">
          <mxGeometry width="50" height="50" relative="1" as="geometry">
            <mxPoint x="900" y="860" as="sourcePoint" />
            <mxPoint x="950" y="810" as="targetPoint" />
            <Array as="points">
              <mxPoint x="920" y="720" />
              <mxPoint x="1080" y="720" />
            </Array>
          </mxGeometry>
        </mxCell>
        <mxCell id="2DbDJx7GJpLvoIrPaRd6-138" value="" style="endArrow=none;html=1;strokeColor=#000000;exitX=0.5;exitY=0;exitDx=0;exitDy=0;entryX=0.5;entryY=1;entryDx=0;entryDy=0;rounded=0;strokeWidth=3;" parent="1" source="2DbDJx7GJpLvoIrPaRd6-56" target="2DbDJx7GJpLvoIrPaRd6-46" edge="1">
          <mxGeometry width="50" height="50" relative="1" as="geometry">
            <mxPoint x="900" y="860" as="sourcePoint" />
            <mxPoint x="950" y="810" as="targetPoint" />
            <Array as="points">
              <mxPoint x="960" y="740" />
              <mxPoint x="1360" y="740" />
            </Array>
          </mxGeometry>
        </mxCell>
        <mxCell id="2DbDJx7GJpLvoIrPaRd6-139" value="" style="endArrow=none;html=1;strokeColor=#000000;rounded=0;entryX=0.5;entryY=0;entryDx=0;entryDy=0;exitX=0.5;exitY=1;exitDx=0;exitDy=0;strokeWidth=3;" parent="1" source="2DbDJx7GJpLvoIrPaRd6-51" target="2DbDJx7GJpLvoIrPaRd6-58" edge="1">
          <mxGeometry width="50" height="50" relative="1" as="geometry">
            <mxPoint x="1620" y="730" as="sourcePoint" />
            <mxPoint x="950" y="810" as="targetPoint" />
            <Array as="points">
              <mxPoint x="1640" y="760" />
              <mxPoint x="1000" y="760" />
            </Array>
          </mxGeometry>
        </mxCell>
        <mxCell id="2DbDJx7GJpLvoIrPaRd6-140" value="" style="endArrow=none;html=1;rounded=0;exitX=0.5;exitY=1;exitDx=0;exitDy=0;entryX=0.5;entryY=0;entryDx=0;entryDy=0;strokeWidth=3;" parent="1" source="2DbDJx7GJpLvoIrPaRd6-30" target="2DbDJx7GJpLvoIrPaRd6-59" edge="1">
          <mxGeometry width="50" height="50" relative="1" as="geometry">
            <mxPoint x="880" y="860" as="sourcePoint" />
            <mxPoint x="930" y="810" as="targetPoint" />
            <Array as="points">
              <mxPoint x="440" y="800" />
              <mxPoint x="680" y="800" />
              <mxPoint x="1040" y="800" />
            </Array>
          </mxGeometry>
        </mxCell>
        <mxCell id="2DbDJx7GJpLvoIrPaRd6-142" value="" style="endArrow=none;html=1;strokeColor=#000000;entryX=0.5;entryY=1;entryDx=0;entryDy=0;rounded=0;exitX=0.5;exitY=0;exitDx=0;exitDy=0;strokeWidth=3;" parent="1" source="2DbDJx7GJpLvoIrPaRd6-38" edge="1">
          <mxGeometry width="50" height="50" relative="1" as="geometry">
            <mxPoint x="990" y="550" as="sourcePoint" />
            <mxPoint x="900" y="240" as="targetPoint" />
            <Array as="points">
              <mxPoint x="1080" y="440" />
              <mxPoint x="900" y="440" />
              <mxPoint x="900" y="320" />
            </Array>
          </mxGeometry>
        </mxCell>
        <mxCell id="2DbDJx7GJpLvoIrPaRd6-143" value="" style="endArrow=oval;html=1;strokeColor=#000000;exitX=0.25;exitY=0;exitDx=0;exitDy=0;rounded=0;startArrow=none;startFill=0;endFill=1;strokeWidth=3;" parent="1" source="2DbDJx7GJpLvoIrPaRd6-41" edge="1">
          <mxGeometry width="50" height="50" relative="1" as="geometry">
            <mxPoint x="990" y="550" as="sourcePoint" />
            <mxPoint x="1080" y="440" as="targetPoint" />
            <Array as="points">
              <mxPoint x="1320" y="440" />
            </Array>
          </mxGeometry>
        </mxCell>
        <mxCell id="2DbDJx7GJpLvoIrPaRd6-144" value="" style="endArrow=oval;html=1;strokeColor=#000000;exitX=0.5;exitY=0;exitDx=0;exitDy=0;rounded=0;startArrow=none;startFill=0;endFill=1;strokeWidth=3;" parent="1" source="2DbDJx7GJpLvoIrPaRd6-49" edge="1">
          <mxGeometry width="50" height="50" relative="1" as="geometry">
            <mxPoint x="990" y="550" as="sourcePoint" />
            <mxPoint x="1320" y="440" as="targetPoint" />
            <Array as="points">
              <mxPoint x="1600" y="440" />
            </Array>
          </mxGeometry>
        </mxCell>
        <mxCell id="2DbDJx7GJpLvoIrPaRd6-145" value="" style="endArrow=none;html=1;strokeColor=#000000;entryX=0.5;entryY=1;entryDx=0;entryDy=0;exitX=0.75;exitY=0;exitDx=0;exitDy=0;endFill=0;rounded=0;strokeWidth=3;" parent="1" source="2DbDJx7GJpLvoIrPaRd6-41" edge="1">
          <mxGeometry width="50" height="50" relative="1" as="geometry">
            <mxPoint x="990" y="550" as="sourcePoint" />
            <mxPoint x="1060" y="240" as="targetPoint" />
            <Array as="points">
              <mxPoint x="1400" y="400" />
              <mxPoint x="1060" y="400" />
            </Array>
          </mxGeometry>
        </mxCell>
        <mxCell id="2DbDJx7GJpLvoIrPaRd6-146" value="" style="endArrow=oval;html=1;strokeColor=#000000;exitX=0.75;exitY=0;exitDx=0;exitDy=0;rounded=0;endFill=1;strokeWidth=3;" parent="1" source="2DbDJx7GJpLvoIrPaRd6-47" edge="1">
          <mxGeometry width="50" height="50" relative="1" as="geometry">
            <mxPoint x="990" y="550" as="sourcePoint" />
            <mxPoint x="1400" y="400" as="targetPoint" />
            <Array as="points">
              <mxPoint x="1680" y="400" />
            </Array>
          </mxGeometry>
        </mxCell>
        <mxCell id="2DbDJx7GJpLvoIrPaRd6-147" value="" style="endArrow=oval;html=1;strokeColor=#000000;exitX=0.5;exitY=0;exitDx=0;exitDy=0;rounded=0;endFill=1;strokeWidth=3;" parent="1" source="2DbDJx7GJpLvoIrPaRd6-8" edge="1">
          <mxGeometry width="50" height="50" relative="1" as="geometry">
            <mxPoint x="790" y="570" as="sourcePoint" />
            <mxPoint x="1060" y="300" as="targetPoint" />
            <Array as="points">
              <mxPoint x="330" y="300" />
            </Array>
          </mxGeometry>
        </mxCell>
        <mxCell id="2DbDJx7GJpLvoIrPaRd6-149" value="" style="endArrow=oval;html=1;strokeColor=#000000;exitX=0.5;exitY=0;exitDx=0;exitDy=0;rounded=0;startArrow=none;startFill=0;endFill=1;strokeWidth=3;" parent="1" source="2DbDJx7GJpLvoIrPaRd6-9" edge="1">
          <mxGeometry width="50" height="50" relative="1" as="geometry">
            <mxPoint x="790" y="570" as="sourcePoint" />
            <mxPoint x="800" y="780" as="targetPoint" />
            <Array as="points">
              <mxPoint x="360" y="320" />
              <mxPoint x="520" y="320" />
              <mxPoint x="520" y="560" />
              <mxPoint x="700" y="560" />
              <mxPoint x="700" y="780" />
            </Array>
          </mxGeometry>
        </mxCell>
        <mxCell id="2DbDJx7GJpLvoIrPaRd6-150" value="" style="endArrow=none;html=1;strokeColor=#000000;entryX=1;entryY=0.5;entryDx=0;entryDy=0;exitX=0;exitY=0.5;exitDx=0;exitDy=0;rounded=0;strokeWidth=3;" parent="1" source="2DbDJx7GJpLvoIrPaRd6-19" target="2DbDJx7GJpLvoIrPaRd6-14" edge="1">
          <mxGeometry width="50" height="50" relative="1" as="geometry">
            <mxPoint x="790" y="570" as="sourcePoint" />
            <mxPoint x="840" y="520" as="targetPoint" />
            <Array as="points">
              <mxPoint x="720" y="440" />
            </Array>
          </mxGeometry>
        </mxCell>
        <mxCell id="2DbDJx7GJpLvoIrPaRd6-151" value="" style="endArrow=none;html=1;strokeColor=#000000;entryX=0.5;entryY=1;entryDx=0;entryDy=0;exitX=0.5;exitY=0;exitDx=0;exitDy=0;strokeWidth=3;" parent="1" source="2DbDJx7GJpLvoIrPaRd6-28" target="2DbDJx7GJpLvoIrPaRd6-13" edge="1">
          <mxGeometry width="50" height="50" relative="1" as="geometry">
            <mxPoint x="790" y="570" as="sourcePoint" />
            <mxPoint x="840" y="520" as="targetPoint" />
          </mxGeometry>
        </mxCell>
        <mxCell id="2DbDJx7GJpLvoIrPaRd6-152" value="" style="endArrow=oval;html=1;strokeColor=#000000;exitX=0.5;exitY=0;exitDx=0;exitDy=0;rounded=0;startArrow=none;startFill=0;endFill=1;strokeWidth=3;" parent="1" source="2DbDJx7GJpLvoIrPaRd6-27" edge="1">
          <mxGeometry width="50" height="50" relative="1" as="geometry">
            <mxPoint x="790" y="570" as="sourcePoint" />
            <mxPoint x="900" y="440" as="targetPoint" />
            <Array as="points">
              <mxPoint x="360" y="520" />
              <mxPoint x="900" y="520" />
            </Array>
          </mxGeometry>
        </mxCell>
        <mxCell id="2DbDJx7GJpLvoIrPaRd6-153" value="" style="endArrow=none;html=1;strokeColor=#000000;entryX=0.5;entryY=0;entryDx=0;entryDy=0;rounded=0;endFill=0;startArrow=oval;startFill=1;strokeWidth=3;" parent="1" target="2DbDJx7GJpLvoIrPaRd6-20" edge="1">
          <mxGeometry width="50" height="50" relative="1" as="geometry">
            <mxPoint x="900" y="360" as="sourcePoint" />
            <mxPoint x="840" y="520" as="targetPoint" />
            <Array as="points">
              <mxPoint x="800" y="360" />
            </Array>
          </mxGeometry>
        </mxCell>
        <mxCell id="2DbDJx7GJpLvoIrPaRd6-154" value="" style="endArrow=none;html=1;strokeColor=#000000;entryX=0.5;entryY=0;entryDx=0;entryDy=0;startArrow=oval;startFill=1;strokeWidth=3;" parent="1" target="2DbDJx7GJpLvoIrPaRd6-21" edge="1">
          <mxGeometry width="50" height="50" relative="1" as="geometry">
            <mxPoint x="840" y="300" as="sourcePoint" />
            <mxPoint x="840" y="520" as="targetPoint" />
          </mxGeometry>
        </mxCell>
        <mxCell id="2DbDJx7GJpLvoIrPaRd6-155" value="" style="endArrow=none;html=1;strokeColor=#000000;entryX=0.5;entryY=1;entryDx=0;entryDy=0;rounded=0;strokeWidth=3;" parent="1" target="2DbDJx7GJpLvoIrPaRd6-23" edge="1">
          <mxGeometry width="50" height="50" relative="1" as="geometry">
            <mxPoint x="800" y="560" as="sourcePoint" />
            <mxPoint x="840" y="520" as="targetPoint" />
            <Array as="points">
              <mxPoint x="800" y="500" />
              <mxPoint x="840" y="500" />
            </Array>
          </mxGeometry>
        </mxCell>
      </root>
    </mxGraphModel>
  </diagram>
</mxfile>
